# xmcd
#
# Track frame offsets: 
#        150
#        18981
#        30954
#        50508
#        65095
#        81972
#        105296
#        117316
#        132057
#        146132
#        161551
#        176316
#
# Disc length: 2653 seconds
#
# Revision: 2
# Processed by: cddbd v1.5.2PL0 Copyright (c) Steve Scherf et al.
# Submitted via: ExactAudioCopy v1.0b1
#
DISCID=960a5b0c
DTITLE=Ricky Koole - To The Heartland
DYEAR=2010
DGENRE=Vocal
TTITLE0=Washing Of The Water
TTITLE1=I Can't Change It
TTITLE2=Your Time To Cry
TTITLE3=The Road I Took To You
TTITLE4=It Won't Be Long
TTITLE5=House For Sale
TTITLE6=Going Home
TTITLE7=Woman Left Lonely
TTITLE8=I Miss You Most When You're Here
TTITLE9=He Made A Woman Out Of Me
TTITLE10=Little Girl Blue
TTITLE11=I'm A Drifter
EXTD=
EXTT0=
EXTT1=
EXTT2=
EXTT3=
EXTT4=
EXTT5=
EXTT6=
EXTT7=
EXTT8=
EXTT9=
EXTT10=
EXTT11=
PLAYORDER=
